M48
; DRILL file {KiCad 6.0.7-f9a2dced07~116~ubuntu20.04.1} date tis 18 okt 2022 16:55:32
; FORMAT={-:-/ absolute / inch / decimal}
; #@! TF.CreationDate,2022-10-18T16:55:32+02:00
; #@! TF.GenerationSoftware,Kicad,Pcbnew,6.0.7-f9a2dced07~116~ubuntu20.04.1
; #@! TF.FileFunction,Plated,1,2,PTH
FMAT,2
INCH
; #@! TA.AperFunction,Plated,PTH,ComponentDrill
T1C0.0315
; #@! TA.AperFunction,Plated,PTH,ComponentDrill
T2C0.0433
; #@! TA.AperFunction,Plated,PTH,ComponentDrill
T3C0.0472
%
G90
G05
T1
X5.15Y-4.3
X5.2Y-2.95
X5.25Y-3.25
X5.25Y-3.3484
X5.2961Y-2.3
X5.2961Y-2.7
X5.2984Y-2.95
X5.3016Y-4.15
X5.4461Y-2.3
X5.4461Y-2.7
X5.4984Y-4.15
X5.5Y-3.2
X5.5Y-3.6
X5.55Y-4.3
X5.5961Y-2.3
X5.5961Y-2.7
X5.6Y-2.9
X5.6Y-2.9984
X5.65Y-3.2
X5.65Y-3.6
X5.7Y-4.2
X5.75Y-2.3
X5.75Y-2.7
X5.7984Y-4.2
X5.8002Y-3.2004
X5.8002Y-3.5004
X5.85Y-2.8516
X5.85Y-3.0484
X5.8961Y-2.3
X5.8961Y-2.7
X5.9002Y-3.2004
X5.9002Y-3.5004
X6.0Y-4.0
X6.0Y-4.15
X6.0Y-4.3
X6.0002Y-3.2004
X6.0002Y-3.5004
X6.0461Y-2.3
X6.0461Y-2.7
X6.05Y-3.7
X6.05Y-3.7984
X6.1002Y-3.2004
X6.1002Y-3.5004
X6.1961Y-2.3
X6.1961Y-2.7
X6.2002Y-3.2004
X6.2002Y-3.5004
X6.3002Y-3.2004
X6.3002Y-3.5004
X6.4Y-3.7
X6.4Y-3.7984
X6.4Y-4.0
X6.4Y-4.15
X6.4Y-4.3
X6.4002Y-3.2004
X6.4002Y-3.5004
X6.4461Y-2.55
X6.4461Y-2.6484
X6.6Y-3.2
X6.6Y-3.6
X6.75Y-3.7516
X6.75Y-3.85
T2
X4.85Y-2.8
X4.85Y-2.9811
X4.85Y-3.1622
X4.85Y-3.3433
X4.85Y-3.5244
X4.85Y-3.7055
X5.0Y-2.6594
X5.0Y-2.8406
X5.0Y-3.0594
X5.0Y-3.2406
X5.0Y-3.4689
X5.0Y-3.65
X5.0Y-3.8311
X5.15Y-2.3189
X5.15Y-2.5
X5.15Y-2.6811
X5.1594Y-3.55
X5.3406Y-3.55
X6.3555Y-2.35
X6.5366Y-2.35
X6.55Y-3.9689
X6.55Y-4.15
X6.55Y-4.3311
X6.8Y-2.6472
X6.8Y-2.8283
X6.8Y-3.0094
X6.8Y-3.1906
X6.8Y-3.3717
X6.8Y-3.5528
T3
X5.2Y-3.75
X5.2Y-3.95
X5.8Y-3.75
X5.8Y-3.95
X6.0Y-2.85
X6.0Y-3.05
X6.6Y-2.85
X6.6Y-3.05
T0
M30
