%TF.GenerationSoftware,KiCad,Pcbnew,6.0.7-f9a2dced07~116~ubuntu20.04.1*%
%TF.CreationDate,2022-10-18T16:55:30+02:00*%
%TF.ProjectId,od-ds-fz,6f642d64-732d-4667-9a2e-6b696361645f,rev?*%
%TF.SameCoordinates,Original*%
%TF.FileFunction,Soldermask,Top*%
%TF.FilePolarity,Negative*%
%FSLAX46Y46*%
G04 Gerber Fmt 4.6, Leading zero omitted, Abs format (unit mm)*
G04 Created by KiCad (PCBNEW 6.0.7-f9a2dced07~116~ubuntu20.04.1) date 2022-10-18 16:55:30*
%MOMM*%
%LPD*%
G01*
G04 APERTURE LIST*
G04 Aperture macros list*
%AMRoundRect*
0 Rectangle with rounded corners*
0 $1 Rounding radius*
0 $2 $3 $4 $5 $6 $7 $8 $9 X,Y pos of 4 corners*
0 Add a 4 corners polygon primitive as box body*
4,1,4,$2,$3,$4,$5,$6,$7,$8,$9,$2,$3,0*
0 Add four circle primitives for the rounded corners*
1,1,$1+$1,$2,$3*
1,1,$1+$1,$4,$5*
1,1,$1+$1,$6,$7*
1,1,$1+$1,$8,$9*
0 Add four rect primitives between the rounded corners*
20,1,$1+$1,$2,$3,$4,$5,0*
20,1,$1+$1,$4,$5,$6,$7,0*
20,1,$1+$1,$6,$7,$8,$9,0*
20,1,$1+$1,$8,$9,$2,$3,0*%
G04 Aperture macros list end*
%ADD10C,1.600000*%
%ADD11O,1.600000X1.600000*%
%ADD12R,1.600000X1.600000*%
%ADD13R,2.400000X2.400000*%
%ADD14O,2.400000X2.400000*%
%ADD15C,3.200000*%
%ADD16RoundRect,0.250001X-0.799999X0.799999X-0.799999X-0.799999X0.799999X-0.799999X0.799999X0.799999X0*%
%ADD17C,2.100000*%
%ADD18RoundRect,0.250001X0.799999X-0.799999X0.799999X0.799999X-0.799999X0.799999X-0.799999X-0.799999X0*%
%ADD19RoundRect,0.250001X-0.799999X-0.799999X0.799999X-0.799999X0.799999X0.799999X-0.799999X0.799999X0*%
%ADD20RoundRect,0.250001X0.799999X0.799999X-0.799999X0.799999X-0.799999X-0.799999X0.799999X-0.799999X0*%
G04 APERTURE END LIST*
D10*
%TO.C,C10*%
X148590000Y-77430000D03*
X148590000Y-72430000D03*
%TD*%
%TO.C,R4*%
X149760000Y-68580000D03*
D11*
X149760000Y-58420000D03*
%TD*%
D12*
%TO.C,C7*%
X153670000Y-93980000D03*
D10*
X153670000Y-96480000D03*
%TD*%
D12*
%TO.C,C5*%
X144780000Y-106680000D03*
D10*
X147280000Y-106680000D03*
%TD*%
%TO.C,R1*%
X153570000Y-68580000D03*
D11*
X153570000Y-58420000D03*
%TD*%
D13*
%TO.C,D2*%
X132080000Y-95250000D03*
D14*
X147320000Y-95250000D03*
%TD*%
D10*
%TO.C,R13*%
X167640000Y-91440000D03*
D11*
X167640000Y-81280000D03*
%TD*%
D13*
%TO.C,D3*%
X147320000Y-100330000D03*
D14*
X132080000Y-100330000D03*
%TD*%
D10*
%TO.C,R8*%
X143510000Y-91440000D03*
D11*
X143510000Y-81280000D03*
%TD*%
D10*
%TO.C,R3*%
X138330000Y-58420000D03*
D11*
X138330000Y-68580000D03*
%TD*%
D15*
%TO.C,H2*%
X172720000Y-107950000D03*
%TD*%
D13*
%TO.C,D4*%
X152400000Y-72390000D03*
D14*
X167640000Y-72390000D03*
%TD*%
D10*
%TO.C,R10*%
X152400000Y-101600000D03*
D11*
X162560000Y-101600000D03*
%TD*%
D10*
%TO.C,R5*%
X146050000Y-58420000D03*
D11*
X146050000Y-68580000D03*
%TD*%
D10*
%TO.C,R11*%
X162560000Y-105410000D03*
D11*
X152400000Y-105410000D03*
%TD*%
D12*
%TO.C,C3*%
X163730000Y-64770000D03*
D10*
X163730000Y-67270000D03*
%TD*%
D16*
%TO.C,J1*%
X127000000Y-77710000D03*
D17*
X127000000Y-82310000D03*
%TD*%
D18*
%TO.C,RVvol1*%
X130810000Y-68100000D03*
D17*
X130810000Y-63500000D03*
X130810000Y-58900000D03*
%TD*%
D16*
%TO.C,SWPow1*%
X123190000Y-71120000D03*
D17*
X123190000Y-75720000D03*
X123190000Y-80320000D03*
X123190000Y-84920000D03*
X123190000Y-89520000D03*
X123190000Y-94120000D03*
%TD*%
D12*
%TO.C,C2*%
X132080000Y-74930000D03*
D10*
X134580000Y-74930000D03*
%TD*%
D12*
%TO.C,C1*%
X142240000Y-73660000D03*
D10*
X142240000Y-76160000D03*
%TD*%
D18*
%TO.C,RVgain1*%
X127000000Y-97310000D03*
D17*
X127000000Y-92710000D03*
X127000000Y-88110000D03*
%TD*%
D19*
%TO.C,JBat1*%
X131050000Y-90170000D03*
D17*
X135650000Y-90170000D03*
%TD*%
D15*
%TO.C,H1*%
X124460000Y-60960000D03*
%TD*%
D10*
%TO.C,R12*%
X157380000Y-58420000D03*
D11*
X157380000Y-68580000D03*
%TD*%
D10*
%TO.C,R6*%
X134520000Y-58420000D03*
D11*
X134520000Y-68580000D03*
%TD*%
D15*
%TO.C,H4*%
X124460000Y-107950000D03*
%TD*%
D12*
%TO.C,U1*%
X162565000Y-81290000D03*
D11*
X160025000Y-81290000D03*
X157485000Y-81290000D03*
X154945000Y-81290000D03*
X152405000Y-81290000D03*
X149865000Y-81290000D03*
X147325000Y-81290000D03*
X147325000Y-88910000D03*
X149865000Y-88910000D03*
X152405000Y-88910000D03*
X154945000Y-88910000D03*
X157485000Y-88910000D03*
X160025000Y-88910000D03*
X162565000Y-88910000D03*
%TD*%
D12*
%TO.C,C8*%
X162560000Y-93980000D03*
D10*
X162560000Y-96480000D03*
%TD*%
D12*
%TO.C,C4*%
X133350000Y-82550000D03*
D10*
X133350000Y-85050000D03*
%TD*%
%TO.C,R2*%
X142140000Y-58420000D03*
D11*
X142140000Y-68580000D03*
%TD*%
D18*
%TO.C,SWclip1*%
X172720000Y-90240000D03*
D17*
X172720000Y-85640000D03*
X172720000Y-81040000D03*
X172720000Y-76440000D03*
X172720000Y-71840000D03*
X172720000Y-67240000D03*
%TD*%
D13*
%TO.C,D5*%
X167640000Y-77470000D03*
D14*
X152400000Y-77470000D03*
%TD*%
D16*
%TO.C,J2*%
X127000000Y-67550000D03*
D17*
X127000000Y-72150000D03*
%TD*%
D12*
%TO.C,C9*%
X171450000Y-97790000D03*
D10*
X171450000Y-95290000D03*
%TD*%
D20*
%TO.C,D1*%
X166030000Y-59690000D03*
D17*
X161430000Y-59690000D03*
%TD*%
D10*
%TO.C,R7*%
X139700000Y-91440000D03*
D11*
X139700000Y-81280000D03*
%TD*%
D18*
%TO.C,RVtone1*%
X166370000Y-110010000D03*
D17*
X166370000Y-105410000D03*
X166370000Y-100810000D03*
%TD*%
D10*
%TO.C,R14*%
X152400000Y-109220000D03*
D11*
X162560000Y-109220000D03*
%TD*%
D10*
%TO.C,C6*%
X139660000Y-105410000D03*
X134660000Y-105410000D03*
%TD*%
D15*
%TO.C,H3*%
X172720000Y-60960000D03*
%TD*%
D10*
%TO.C,R9*%
X140970000Y-109220000D03*
D11*
X130810000Y-109220000D03*
%TD*%
M02*
